<svg width="13" height="13" viewBox="0 0 13 13" fill="none" xmlns="http://www.w3.org/2000/svg">
<path d="M9.11166 7.83334H8.58499L8.39832 7.65334C9.07424 6.86935 9.44572 5.86846 9.44499 4.83334C9.44499 3.97628 9.19084 3.13848 8.71469 2.42586C8.23854 1.71325 7.56176 1.15784 6.76995 0.829857C5.97814 0.501878 5.10685 0.416063 4.26626 0.583266C3.42568 0.750468 2.65355 1.16318 2.04753 1.76921C1.4415 2.37523 1.02879 3.14736 0.861586 3.98794C0.694383 4.82853 0.780198 5.69982 1.10818 6.49163C1.43616 7.28344 1.99157 7.96022 2.70418 8.43637C3.4168 8.91252 4.2546 9.16667 5.11166 9.16667C6.18499 9.16667 7.17166 8.77334 7.93166 8.12L8.11166 8.30667V8.83334L11.445 12.16L12.4383 11.1667L9.11166 7.83334ZM5.11166 7.83334C3.45166 7.83334 2.11166 6.49334 2.11166 4.83334C2.11166 3.17334 3.45166 1.83334 5.11166 1.83334C6.77166 1.83334 8.11166 3.17334 8.11166 4.83334C8.11166 6.49334 6.77166 7.83334 5.11166 7.83334Z" fill="black"/>
</svg>
